<svg width="130" height="50" xmlns="http://www.w3.org/2000/svg" xmlns:xlink="http://www.w3.org/1999/xlink">
 <!-- Created with Method Draw - http://github.com/duopixel/Method-Draw/ -->
 <defs>
  <symbol id="svg_17" viewBox="0 0 375 374.999991" height="374.999991pt" width="375pt" xmlns:xlink="http://www.w3.org/1999/xlink">
   <defs>
    <g>
     <symbol id="svg_15">
      <path d="m9.25,-5.54688l1.51563,0l0,4.28125c-0.54297,0.44922 -1.17969,0.79297 -1.90625,1.03125c-0.71875,0.23829 -1.46875,0.35938 -2.25,0.35938c-1.11719,0 -2.11719,-0.23828 -3,-0.71875c-0.88672,-0.48828 -1.58594,-1.16016 -2.09375,-2.01563c-0.51172,-0.85156 -0.76563,-1.8125 -0.76563,-2.875c0,-1.07031 0.25391,-2.03515 0.76563,-2.89062c0.50781,-0.85156 1.20703,-1.51953 2.09375,-2c0.89453,-0.48828 1.90625,-0.73438 3.03125,-0.73438c0.875,0 1.67187,0.14844 2.39062,0.4375c0.71875,0.28125 1.32813,0.70313 1.82813,1.26563l-0.96875,0.96875c-0.88672,-0.84375 -1.94922,-1.26563 -3.1875,-1.26563c-0.84375,0 -1.60157,0.1836 -2.26563,0.54688c-0.65625,0.35547 -1.17187,0.85547 -1.54687,1.5c-0.375,0.63672 -0.5625,1.35937 -0.5625,2.17187c0,0.79297 0.1875,1.51172 0.5625,2.15625c0.375,0.63672 0.89062,1.14063 1.54687,1.51563c0.66406,0.36719 1.41406,0.54687 2.25,0.54687c0.97656,0 1.83203,-0.23828 2.5625,-0.71875l0,-3.5625zm0,0"/>
     </symbol>
     <symbol id="svg_14">
      <path d="m9.60938,-1.35938l0,1.35938l-7.96875,0l0,-10.98438l7.75,0l0,1.375l-6.17188,0l0,3.35938l5.5,0l0,1.34375l-5.5,0l0,3.54687l6.39063,0zm0,0"/>
     </symbol>
     <symbol id="svg_5">
      <path d="m11.09375,-10.98438l0,10.98438l-1.29687,0l-6.57813,-8.1875l0,8.1875l-1.57812,0l0,-10.98438l1.29687,0l6.57813,8.1875l0,-8.1875l1.57812,0zm0,0"/>
     </symbol>
     <symbol id="svg_12">
      <path d="m4.84375,0.125c-0.82422,0 -1.62109,-0.125 -2.39062,-0.375c-0.77344,-0.25781 -1.375,-0.59375 -1.8125,-1l0.57812,-1.23438c0.41406,0.38672 0.95313,0.69922 1.60938,0.9375c0.65625,0.23047 1.32812,0.34375 2.01562,0.34375c0.91406,0 1.59766,-0.15625 2.04688,-0.46875c0.44531,-0.3125 0.67187,-0.72265 0.67187,-1.23437c0,-0.375 -0.125,-0.67578 -0.375,-0.90625c-0.24219,-0.23828 -0.54297,-0.42188 -0.90625,-0.54688c-0.36719,-0.125 -0.875,-0.26562 -1.53125,-0.42187c-0.82422,-0.19531 -1.49219,-0.39453 -2,-0.59375c-0.5,-0.19531 -0.93359,-0.50391 -1.29687,-0.92188c-0.36719,-0.41406 -0.54688,-0.97265 -0.54688,-1.67187c0,-0.58203 0.14844,-1.10938 0.45313,-1.57813c0.3125,-0.47656 0.78125,-0.85937 1.40625,-1.14062c0.63281,-0.28125 1.41406,-0.42188 2.34375,-0.42188c0.65625,0 1.29687,0.08594 1.92187,0.25c0.625,0.16797 1.16016,0.40625 1.60938,0.71875l-0.51563,1.26563c-0.46094,-0.28906 -0.95312,-0.50781 -1.48437,-0.65625c-0.52344,-0.15625 -1.03125,-0.23438 -1.53125,-0.23438c-0.88672,0 -1.55469,0.16407 -2,0.48438c-0.4375,0.32422 -0.65625,0.74219 -0.65625,1.25c0,0.375 0.125,0.68359 0.375,0.92187c0.25,0.23047 0.55468,0.41407 0.92187,0.54688c0.375,0.125 0.87891,0.26172 1.51563,0.40625c0.83203,0.21094 1.5,0.41406 2,0.60937c0.5,0.19922 0.92578,0.5 1.28125,0.90625c0.36328,0.40625 0.54687,0.95313 0.54687,1.64063c0,0.57422 -0.15625,1.10156 -0.46875,1.57812c-0.3125,0.48047 -0.78906,0.85938 -1.42187,1.14063c-0.63672,0.27344 -1.42188,0.40625 -2.35938,0.40625zm0,0"/>
     </symbol>
     <symbol id="svg_7">
      <path d="m1.64063,-10.98438l1.57812,0l0,10.98438l-1.57812,0l0,-10.98438zm0,0"/>
     </symbol>
     <symbol id="svg_13">
      <path/>
     </symbol>
     <symbol id="svg_9">
      <path d="m6.5625,0.125c-1.10547,0 -2.10156,-0.23828 -2.98437,-0.71875c-0.875,-0.48828 -1.57032,-1.16016 -2.07813,-2.01563c-0.5,-0.85156 -0.75,-1.8125 -0.75,-2.875c0,-1.07031 0.25,-2.03125 0.75,-2.875c0.50781,-0.85156 1.20703,-1.52343 2.09375,-2.01562c0.88281,-0.48828 1.87891,-0.73438 2.98438,-0.73438c0.85156,0 1.63281,0.14844 2.34375,0.4375c0.71875,0.28125 1.32812,0.71094 1.82812,1.28125l-1.03125,0.98438c-0.82422,-0.86328 -1.85156,-1.29688 -3.07812,-1.29688c-0.82422,0 -1.5625,0.1836 -2.21875,0.54688c-0.65625,0.36719 -1.17188,0.87109 -1.54688,1.51562c-0.36719,0.63672 -0.54687,1.35547 -0.54687,2.15625c0,0.79297 0.17968,1.51172 0.54687,2.15625c0.375,0.63672 0.89063,1.14063 1.54688,1.51563c0.65625,0.36719 1.39453,0.54687 2.21875,0.54687c1.21875,0 2.24218,-0.4414 3.07812,-1.32812l1.03125,1c-0.5,0.5625 -1.10937,0.99219 -1.82812,1.28125c-0.71875,0.29297 -1.50782,0.4375 -2.35938,0.4375zm0,0"/>
     </symbol>
     <symbol id="svg_6">
      <path d="m6.60938,0.125c-1.11719,0 -2.11719,-0.23828 -3,-0.71875c-0.88672,-0.48828 -1.58594,-1.16016 -2.09375,-2.01563c-0.51172,-0.86328 -0.76563,-1.82031 -0.76563,-2.875c0,-1.0625 0.25391,-2.01953 0.76563,-2.875c0.50781,-0.85156 1.20703,-1.52343 2.09375,-2.01562c0.88281,-0.48828 1.88281,-0.73438 3,-0.73438c1.09375,0 2.08203,0.2461 2.96875,0.73438c0.89453,0.49219 1.59375,1.16406 2.09375,2.01562c0.5,0.84375 0.75,1.80469 0.75,2.875c0,1.0625 -0.25,2.02344 -0.75,2.875c-0.5,0.85547 -1.19922,1.52735 -2.09375,2.01563c-0.88672,0.48047 -1.875,0.71875 -2.96875,0.71875zm0,-1.39063c0.80078,0 1.51953,-0.17968 2.15625,-0.54687c0.64453,-0.375 1.15625,-0.87891 1.53125,-1.51563c0.375,-0.64453 0.5625,-1.36328 0.5625,-2.15625c0,-0.80078 -0.1875,-1.51953 -0.5625,-2.15625c-0.375,-0.64453 -0.88672,-1.14843 -1.53125,-1.51562c-0.63672,-0.36328 -1.35547,-0.54688 -2.15625,-0.54688c-0.8125,0 -1.54688,0.1836 -2.20313,0.54688c-0.64844,0.36719 -1.15625,0.87109 -1.53125,1.51562c-0.36719,0.63672 -0.54687,1.35547 -0.54687,2.15625c0,0.79297 0.17968,1.51172 0.54687,2.15625c0.375,0.63672 0.88281,1.14063 1.53125,1.51563c0.65625,0.36719 1.39063,0.54687 2.20313,0.54687zm0,0"/>
     </symbol>
     <symbol id="svg_8">
      <path d="m3.82813,-9.60938l-3.76563,0l0,-1.375l9.07813,0l0,1.375l-3.76563,0l0,9.60938l-1.54687,0l0,-9.60938zm0,0"/>
     </symbol>
     <symbol id="svg_11">
      <path d="m8.98438,0l-2.35938,-3.375c-0.29297,0.02344 -0.52344,0.03125 -0.6875,0.03125l-2.71875,0l0,3.34375l-1.57812,0l0,-10.98438l4.29687,0c1.41406,0 2.53125,0.34375 3.34375,1.03125c0.82031,0.67969 1.23438,1.60938 1.23438,2.79688c0,0.85547 -0.21485,1.57812 -0.64063,2.17187c-0.41797,0.59375 -1.01172,1.02735 -1.78125,1.29688l2.60938,3.6875l-1.71875,0zm-3.10938,-4.67188c1,0 1.75781,-0.21093 2.28125,-0.64062c0.51953,-0.4375 0.78125,-1.05078 0.78125,-1.84375c0,-0.78906 -0.26172,-1.39453 -0.78125,-1.8125c-0.52344,-0.42578 -1.28125,-0.64063 -2.28125,-0.64063l-2.65625,0l0,4.9375l2.65625,0zm0,0"/>
     </symbol>
     <symbol id="svg_10">
      <path d="m6.20313,0.125c-1.46875,0 -2.61719,-0.41406 -3.4375,-1.25c-0.8125,-0.84375 -1.21875,-2.04688 -1.21875,-3.60938l0,-6.25l1.57812,0l0,6.1875c0,2.35547 1.03125,3.53125 3.09375,3.53125c1,0 1.76563,-0.28906 2.29688,-0.875c0.53125,-0.58203 0.79687,-1.46875 0.79687,-2.65625l0,-6.1875l1.53125,0l0,6.25c0,1.57422 -0.41406,2.77735 -1.23437,3.60938c-0.8125,0.83594 -1.94922,1.25 -3.40625,1.25zm0,0"/>
     </symbol>
    </g>
    <clipPath id="svg_4">
     <path d="m84.53516,132.10547l41.25,0l0,48.89453l-41.25,0l0,-48.89453zm0,0"/>
    </clipPath>
    <clipPath id="svg_3">
     <path d="m97,151l28.78516,0l0,56.85547l-28.78516,0l0,-56.85547zm0,0"/>
    </clipPath>
    <clipPath id="svg_2">
     <path d="m84.53516,132.10547l41.25,0l0,48.89453l-41.25,0l0,-48.89453zm0,0"/>
    </clipPath>
   </defs>
   <g id="svg_1">
    <path fill="none" stroke-linecap="round" stroke="rgb(27.449036%,49.798584%,65.879822%)" stroke-miterlimit="4" transform="matrix(3.539056,1.256112,-1.254319,3.534004,133.388917,142.541535)" d="m0.50028,-0.00056l38.34668,0.00007"/>
    <path fill="none" stroke-linecap="round" stroke="rgb(27.449036%,49.798584%,65.879822%)" stroke-miterlimit="4" transform="matrix(0.000000000000000229,3.743211,-3.75,0.00000000000000023,200.671998,132.092219)" d="m0.50027,0.00003l21.44194,0"/>
    <path fill="none" stroke-linecap="round" stroke="rgb(27.449036%,49.798584%,65.879822%)" stroke-miterlimit="4" transform="matrix(0.000000000000000229,3.735112,-3.75,0.00000000000000023,225.355991,140.777804)" d="m0.49978,0.00014l18.67937,0"/>
    <path fill="none" stroke-linecap="round" stroke="rgb(27.449036%,49.798584%,65.879822%)" stroke-miterlimit="4" transform="matrix(3.748364,0,0,3.75,138.126103,203.974909)" d="m0.49992,0.00044l34.81624,0"/>
    <path fill="none" stroke-linecap="round" stroke="rgb(27.449036%,49.798584%,65.879822%)" stroke-miterlimit="4" transform="matrix(3.74727,0,0,3.75,138.126103,214.573522)" d="m0.50007,0.00019l37.62844,0"/>
    <path fill="none" stroke-linecap="round" stroke="rgb(94.509888%,70.588684%,33.729553%)" stroke-miterlimit="4" transform="matrix(3.774574,0,0,3.75,79.127359,214.573522)" d="m0.50026,0.00019l13.30862,0"/>
    <path fill="none" stroke-linecap="round" stroke="rgb(94.509888%,70.588684%,33.729553%)" stroke-miterlimit="4" transform="matrix(0.000000000000000229,3.745123,-3.75,0.00000000000000023,80.996594,178.520847)" d="m0.5003,0.00013l8.61537,0"/>
    <path fill="none" stroke-linecap="round" stroke="rgb(27.449036%,49.798584%,65.879822%)" stroke-miterlimit="4" transform="matrix(3.534393,1.254205,-1.254095,3.534083,133.378033,133.867959)" d="m0.49992,0.00032l34.59834,-0.00079"/>
    <g fill="rgb(100%,100%,100%)">
     <use y="239.12993" x="79.12736" xlink:href="#svg_15"/>
    </g>
    <g fill="rgb(100%,100%,100%)">
     <use y="239.12993" x="91.24269" xlink:href="#svg_14"/>
    </g>
    <g fill="rgb(100%,100%,100%)">
     <use y="239.12993" x="101.75729" xlink:href="#svg_5"/>
    </g>
    <g fill="rgb(100%,100%,100%)">
     <use y="239.12993" x="114.50037" xlink:href="#svg_14"/>
    </g>
    <g fill="rgb(100%,100%,100%)">
     <use y="239.12993" x="125.01497" xlink:href="#svg_12"/>
    </g>
    <g fill="rgb(100%,100%,100%)">
     <use y="239.12993" x="134.76059" xlink:href="#svg_7"/>
    </g>
    <g fill="rgb(100%,100%,100%)">
     <use y="239.12993" x="139.62556" xlink:href="#svg_12"/>
    </g>
    <g fill="rgb(100%,100%,100%)">
     <use y="239.12993" x="149.37118" xlink:href="#svg_13"/>
    </g>
    <g fill="rgb(100%,100%,100%)">
     <use y="239.12993" x="153.59272" xlink:href="#svg_9"/>
    </g>
    <g fill="rgb(100%,100%,100%)">
     <use y="239.12993" x="164.93908" xlink:href="#svg_6"/>
    </g>
    <g fill="rgb(100%,100%,100%)">
     <use y="239.12993" x="178.12157" xlink:href="#svg_5"/>
    </g>
    <g fill="rgb(100%,100%,100%)">
     <use y="239.12993" x="190.86464" xlink:href="#svg_12"/>
    </g>
    <g fill="rgb(100%,100%,100%)">
     <use y="239.12993" x="200.61026" xlink:href="#svg_8"/>
    </g>
    <g fill="rgb(100%,100%,100%)">
     <use y="239.12993" x="209.82232" xlink:href="#svg_11"/>
    </g>
    <g fill="rgb(100%,100%,100%)">
     <use y="239.12993" x="221.23145" xlink:href="#svg_10"/>
    </g>
    <g fill="rgb(100%,100%,100%)">
     <use y="239.12993" x="233.64495" xlink:href="#svg_9"/>
    </g>
    <g fill="rgb(100%,100%,100%)">
     <use y="239.12993" x="244.9913" xlink:href="#svg_8"/>
    </g>
    <g fill="rgb(100%,100%,100%)">
     <use y="239.12993" x="254.20336" xlink:href="#svg_7"/>
    </g>
    <g fill="rgb(100%,100%,100%)">
     <use y="239.12993" x="259.06832" xlink:href="#svg_6"/>
    </g>
    <g fill="rgb(100%,100%,100%)">
     <use y="239.12993" x="272.25081" xlink:href="#svg_5"/>
    </g>
    <g clip-rule="nonzero" clip-path="url(#svg_4)">
     <path fill-rule="nonzero" fill="rgb(31.759644%,78.039551%,91.758728%)" d="m163.63672,180.0625l-36.71484,-36.66016l-36.71485,36.66016l-5.65625,-5.64453l42.3711,-42.31641l42.37109,42.31641l-5.65625,5.64453"/>
    </g>
    <g clip-rule="nonzero" clip-path="url(#svg_3)">
     <path fill-rule="nonzero" fill="rgb(31.759644%,78.039551%,91.758728%)" d="m126.92188,151.95313l-29.32032,30.17578l0,25.73047l20.20703,0l0,-23.29297l19,0l0,23.29297l19.44141,0l0,-25.73047l-29.32812,-30.17578"/>
     <path fill-rule="nonzero" fill="rgb(94.509888%,70.588684%,33.729553%)" d="m117.80859,207.85938l-20.20703,0l0,-25.73047l29.32032,-30.17578l0.32812,0.33593l0,32.27735l-9.44141,0l0,23.29297"/>
    </g>
    <g clip-rule="nonzero" clip-path="url(#svg_2)">
     <path fill-rule="nonzero" fill="rgb(94.509888%,70.588684%,33.729553%)" d="m90.20703,180.0625l-5.65625,-5.64453l42.3711,-42.31641l0.32812,0.32813l0,11.30078l-0.32812,-0.32813l-36.71485,36.66016"/>
    </g>
   </g>
  </symbol>
 </defs>
 <g>
  <title>background</title>
  <rect fill="#fff" id="canvas_background" height="52" width="132" y="-1" x="-1"/>
  <g display="none" overflow="visible" y="0" x="0" height="100%" width="100%" id="canvasGrid">
   <rect fill="url(#gridpattern)" stroke-width="0" y="0" x="0" height="100%" width="100%"/>
  </g>
 </g>
 <g>
  <title>Layer 1</title>
  <use x="87.31526" y="253.22033" transform="rotate(-0.05707027018070221 64.6486282348724,32.03622436523934) matrix(0.46904386338591186,0,0,0.43088073647228475,-89.88406422758348,-183.7451050445092) " xlink:href="#svg_17" id="svg_18"/>
 </g>
</svg>